<mxfile host="app.diagrams.net" modified="2024-05-12T14:48:51.164Z" agent="Mozilla/5.0 (Windows NT 10.0; Win64; x64) AppleWebKit/537.36 (KHTML, like Gecko) Chrome/125.0.0.0 Safari/537.36" etag="ITpt7W4AhX18ljymMIih" version="24.4.0" type="device">
  <diagram name="Page-1" id="s2Id3hP6Yt0L8lvUWmRU">
    <mxGraphModel dx="1095" dy="1146" grid="1" gridSize="10" guides="1" tooltips="1" connect="1" arrows="1" fold="1" page="1" pageScale="1" pageWidth="850" pageHeight="1100" math="0" shadow="0">
      <root>
        <mxCell id="0" />
        <mxCell id="1" parent="0" />
        <mxCell id="PCOw8MUoLYuNnhCvzRF6-1" value="World" style="swimlane;fontStyle=1;align=center;verticalAlign=top;childLayout=stackLayout;horizontal=1;startSize=26;horizontalStack=0;resizeParent=1;resizeParentMax=0;resizeLast=0;collapsible=1;marginBottom=0;whiteSpace=wrap;html=1;" parent="1" vertex="1">
          <mxGeometry x="440" y="164" width="360" height="612" as="geometry" />
        </mxCell>
        <mxCell id="PCOw8MUoLYuNnhCvzRF6-13" value="- height: int" style="text;strokeColor=none;fillColor=none;align=left;verticalAlign=top;spacingLeft=4;spacingRight=4;overflow=hidden;rotatable=0;points=[[0,0.5],[1,0.5]];portConstraint=eastwest;whiteSpace=wrap;html=1;" parent="PCOw8MUoLYuNnhCvzRF6-1" vertex="1">
          <mxGeometry y="26" width="360" height="26" as="geometry" />
        </mxCell>
        <mxCell id="PCOw8MUoLYuNnhCvzRF6-14" value="- width: int" style="text;strokeColor=none;fillColor=none;align=left;verticalAlign=top;spacingLeft=4;spacingRight=4;overflow=hidden;rotatable=0;points=[[0,0.5],[1,0.5]];portConstraint=eastwest;whiteSpace=wrap;html=1;" parent="PCOw8MUoLYuNnhCvzRF6-1" vertex="1">
          <mxGeometry y="52" width="360" height="26" as="geometry" />
        </mxCell>
        <mxCell id="PCOw8MUoLYuNnhCvzRF6-15" value="- generation: long int" style="text;strokeColor=none;fillColor=none;align=left;verticalAlign=top;spacingLeft=4;spacingRight=4;overflow=hidden;rotatable=0;points=[[0,0.5],[1,0.5]];portConstraint=eastwest;whiteSpace=wrap;html=1;" parent="PCOw8MUoLYuNnhCvzRF6-1" vertex="1">
          <mxGeometry y="78" width="360" height="26" as="geometry" />
        </mxCell>
        <mxCell id="PCOw8MUoLYuNnhCvzRF6-16" value="- cell_states: int" style="text;strokeColor=none;fillColor=none;align=left;verticalAlign=top;spacingLeft=4;spacingRight=4;overflow=hidden;rotatable=0;points=[[0,0.5],[1,0.5]];portConstraint=eastwest;whiteSpace=wrap;html=1;" parent="PCOw8MUoLYuNnhCvzRF6-1" vertex="1">
          <mxGeometry y="104" width="360" height="26" as="geometry" />
        </mxCell>
        <mxCell id="PCOw8MUoLYuNnhCvzRF6-41" value="- grid: vector&amp;lt;vector&amp;lt;int&amp;gt; &amp;gt;" style="text;strokeColor=none;fillColor=none;align=left;verticalAlign=top;spacingLeft=4;spacingRight=4;overflow=hidden;rotatable=0;points=[[0,0.5],[1,0.5]];portConstraint=eastwest;whiteSpace=wrap;html=1;" parent="PCOw8MUoLYuNnhCvzRF6-1" vertex="1">
          <mxGeometry y="130" width="360" height="26" as="geometry" />
        </mxCell>
        <mxCell id="PCOw8MUoLYuNnhCvzRF6-3" value="" style="line;strokeWidth=1;fillColor=none;align=left;verticalAlign=middle;spacingTop=-1;spacingLeft=3;spacingRight=3;rotatable=0;labelPosition=right;points=[];portConstraint=eastwest;strokeColor=inherit;" parent="PCOw8MUoLYuNnhCvzRF6-1" vertex="1">
          <mxGeometry y="156" width="360" height="8" as="geometry" />
        </mxCell>
        <mxCell id="PCOw8MUoLYuNnhCvzRF6-43" value="&lt;div&gt;- World(int height, int width)&lt;br&gt;&lt;/div&gt;" style="text;strokeColor=none;fillColor=none;align=left;verticalAlign=top;spacingLeft=4;spacingRight=4;overflow=hidden;rotatable=0;points=[[0,0.5],[1,0.5]];portConstraint=eastwest;whiteSpace=wrap;html=1;" parent="PCOw8MUoLYuNnhCvzRF6-1" vertex="1">
          <mxGeometry y="164" width="360" height="26" as="geometry" />
        </mxCell>
        <mxCell id="AQKwB4mIMrvWCgOZAOx5-9" value="&lt;div&gt;- World(string&amp;amp; file_name)&lt;br&gt;&lt;/div&gt;" style="text;strokeColor=none;fillColor=none;align=left;verticalAlign=top;spacingLeft=4;spacingRight=4;overflow=hidden;rotatable=0;points=[[0,0.5],[1,0.5]];portConstraint=eastwest;whiteSpace=wrap;html=1;" vertex="1" parent="PCOw8MUoLYuNnhCvzRF6-1">
          <mxGeometry y="190" width="360" height="26" as="geometry" />
        </mxCell>
        <mxCell id="PCOw8MUoLYuNnhCvzRF6-28" value="- save_gamestate(string file_name)" style="text;strokeColor=none;fillColor=none;align=left;verticalAlign=top;spacingLeft=4;spacingRight=4;overflow=hidden;rotatable=0;points=[[0,0.5],[1,0.5]];portConstraint=eastwest;whiteSpace=wrap;html=1;" parent="PCOw8MUoLYuNnhCvzRF6-1" vertex="1">
          <mxGeometry y="216" width="360" height="26" as="geometry" />
        </mxCell>
        <mxCell id="PCOw8MUoLYuNnhCvzRF6-4" value="- evolve()" style="text;strokeColor=none;fillColor=none;align=left;verticalAlign=top;spacingLeft=4;spacingRight=4;overflow=hidden;rotatable=0;points=[[0,0.5],[1,0.5]];portConstraint=eastwest;whiteSpace=wrap;html=1;" parent="PCOw8MUoLYuNnhCvzRF6-1" vertex="1">
          <mxGeometry y="242" width="360" height="26" as="geometry" />
        </mxCell>
        <mxCell id="PCOw8MUoLYuNnhCvzRF6-17" value="- is_stable()" style="text;strokeColor=none;fillColor=none;align=left;verticalAlign=top;spacingLeft=4;spacingRight=4;overflow=hidden;rotatable=0;points=[[0,0.5],[1,0.5]];portConstraint=eastwest;whiteSpace=wrap;html=1;" parent="PCOw8MUoLYuNnhCvzRF6-1" vertex="1">
          <mxGeometry y="268" width="360" height="26" as="geometry" />
        </mxCell>
        <mxCell id="PCOw8MUoLYuNnhCvzRF6-19" value="- print()" style="text;strokeColor=none;fillColor=none;align=left;verticalAlign=top;spacingLeft=4;spacingRight=4;overflow=hidden;rotatable=0;points=[[0,0.5],[1,0.5]];portConstraint=eastwest;whiteSpace=wrap;html=1;" parent="PCOw8MUoLYuNnhCvzRF6-1" vertex="1">
          <mxGeometry y="294" width="360" height="26" as="geometry" />
        </mxCell>
        <mxCell id="PCOw8MUoLYuNnhCvzRF6-45" value="+ are_worlds_identical(const vector&amp;lt;vector&amp;lt;int&amp;gt; &amp;gt;&amp;amp; grid_1&lt;div&gt;&lt;span style=&quot;white-space: pre;&quot;&gt;&#x9;&lt;/span&gt;&lt;span style=&quot;white-space: pre;&quot;&gt;&#x9;&lt;/span&gt;&lt;span style=&quot;white-space: pre;&quot;&gt;&#x9;&lt;/span&gt;&lt;span style=&quot;white-space: pre;&quot;&gt;&#x9;&lt;/span&gt;&amp;nbsp; &amp;nbsp; &amp;nbsp;&lt;span style=&quot;background-color: initial;&quot;&gt;const vector&amp;lt;vector&amp;lt;int&amp;gt; &amp;gt;&amp;amp; grid_2): bool&lt;/span&gt;&lt;br&gt;&lt;/div&gt;" style="text;strokeColor=none;fillColor=none;align=left;verticalAlign=top;spacingLeft=4;spacingRight=4;overflow=hidden;rotatable=0;points=[[0,0.5],[1,0.5]];portConstraint=eastwest;whiteSpace=wrap;html=1;" parent="PCOw8MUoLYuNnhCvzRF6-1" vertex="1">
          <mxGeometry y="320" width="360" height="40" as="geometry" />
        </mxCell>
        <mxCell id="PCOw8MUoLYuNnhCvzRF6-44" value="&lt;div&gt;+ calcDeterminationValue(int y, int x): int&lt;/div&gt;" style="text;strokeColor=none;fillColor=none;align=left;verticalAlign=top;spacingLeft=4;spacingRight=4;overflow=hidden;rotatable=0;points=[[0,0.5],[1,0.5]];portConstraint=eastwest;whiteSpace=wrap;html=1;" parent="PCOw8MUoLYuNnhCvzRF6-1" vertex="1">
          <mxGeometry y="360" width="360" height="26" as="geometry" />
        </mxCell>
        <mxCell id="PCOw8MUoLYuNnhCvzRF6-24" value="+ getGeneration(): long int" style="text;strokeColor=none;fillColor=none;align=left;verticalAlign=top;spacingLeft=4;spacingRight=4;overflow=hidden;rotatable=0;points=[[0,0.5],[1,0.5]];portConstraint=eastwest;whiteSpace=wrap;html=1;" parent="PCOw8MUoLYuNnhCvzRF6-1" vertex="1">
          <mxGeometry y="386" width="360" height="26" as="geometry" />
        </mxCell>
        <mxCell id="PCOw8MUoLYuNnhCvzRF6-23" value="+ get_cell_states(x,y): bool" style="text;strokeColor=none;fillColor=none;align=left;verticalAlign=top;spacingLeft=4;spacingRight=4;overflow=hidden;rotatable=0;points=[[0,0.5],[1,0.5]];portConstraint=eastwest;whiteSpace=wrap;html=1;" parent="PCOw8MUoLYuNnhCvzRF6-1" vertex="1">
          <mxGeometry y="412" width="360" height="22" as="geometry" />
        </mxCell>
        <mxCell id="PCOw8MUoLYuNnhCvzRF6-38" value="+ get_cell_states(p): bool" style="text;strokeColor=none;fillColor=none;align=left;verticalAlign=top;spacingLeft=4;spacingRight=4;overflow=hidden;rotatable=0;points=[[0,0.5],[1,0.5]];portConstraint=eastwest;whiteSpace=wrap;html=1;" parent="PCOw8MUoLYuNnhCvzRF6-1" vertex="1">
          <mxGeometry y="434" width="360" height="22" as="geometry" />
        </mxCell>
        <mxCell id="PCOw8MUoLYuNnhCvzRF6-27" value="+ set_cell_states(x, y): void" style="text;strokeColor=none;fillColor=none;align=left;verticalAlign=top;spacingLeft=4;spacingRight=4;overflow=hidden;rotatable=0;points=[[0,0.5],[1,0.5]];portConstraint=eastwest;whiteSpace=wrap;html=1;" parent="PCOw8MUoLYuNnhCvzRF6-1" vertex="1">
          <mxGeometry y="456" width="360" height="26" as="geometry" />
        </mxCell>
        <mxCell id="PCOw8MUoLYuNnhCvzRF6-39" value="+ set_cell_states(p): void" style="text;strokeColor=none;fillColor=none;align=left;verticalAlign=top;spacingLeft=4;spacingRight=4;overflow=hidden;rotatable=0;points=[[0,0.5],[1,0.5]];portConstraint=eastwest;whiteSpace=wrap;html=1;" parent="PCOw8MUoLYuNnhCvzRF6-1" vertex="1">
          <mxGeometry y="482" width="360" height="26" as="geometry" />
        </mxCell>
        <mxCell id="PCOw8MUoLYuNnhCvzRF6-50" value="+ add_glider(x,y): void" style="text;strokeColor=none;fillColor=none;align=left;verticalAlign=top;spacingLeft=4;spacingRight=4;overflow=hidden;rotatable=0;points=[[0,0.5],[1,0.5]];portConstraint=eastwest;whiteSpace=wrap;html=1;" parent="PCOw8MUoLYuNnhCvzRF6-1" vertex="1">
          <mxGeometry y="508" width="360" height="26" as="geometry" />
        </mxCell>
        <mxCell id="PCOw8MUoLYuNnhCvzRF6-51" value="+ add_toad(x,y): void" style="text;strokeColor=none;fillColor=none;align=left;verticalAlign=top;spacingLeft=4;spacingRight=4;overflow=hidden;rotatable=0;points=[[0,0.5],[1,0.5]];portConstraint=eastwest;whiteSpace=wrap;html=1;" parent="PCOw8MUoLYuNnhCvzRF6-1" vertex="1">
          <mxGeometry y="534" width="360" height="26" as="geometry" />
        </mxCell>
        <mxCell id="PCOw8MUoLYuNnhCvzRF6-52" value="+ add_beacon(x,y): void" style="text;strokeColor=none;fillColor=none;align=left;verticalAlign=top;spacingLeft=4;spacingRight=4;overflow=hidden;rotatable=0;points=[[0,0.5],[1,0.5]];portConstraint=eastwest;whiteSpace=wrap;html=1;" parent="PCOw8MUoLYuNnhCvzRF6-1" vertex="1">
          <mxGeometry y="560" width="360" height="26" as="geometry" />
        </mxCell>
        <mxCell id="PCOw8MUoLYuNnhCvzRF6-53" value="+ add_methuselah(x,y): void" style="text;strokeColor=none;fillColor=none;align=left;verticalAlign=top;spacingLeft=4;spacingRight=4;overflow=hidden;rotatable=0;points=[[0,0.5],[1,0.5]];portConstraint=eastwest;whiteSpace=wrap;html=1;" parent="PCOw8MUoLYuNnhCvzRF6-1" vertex="1">
          <mxGeometry y="586" width="360" height="26" as="geometry" />
        </mxCell>
        <mxCell id="PCOw8MUoLYuNnhCvzRF6-5" value="CommandLineInterface" style="swimlane;fontStyle=1;align=center;verticalAlign=top;childLayout=stackLayout;horizontal=1;startSize=26;horizontalStack=0;resizeParent=1;resizeParentMax=0;resizeLast=0;collapsible=1;marginBottom=0;whiteSpace=wrap;html=1;" parent="1" vertex="1">
          <mxGeometry x="50" y="310" width="310" height="320" as="geometry" />
        </mxCell>
        <mxCell id="PCOw8MUoLYuNnhCvzRF6-6" value="- ms: int" style="text;strokeColor=none;fillColor=none;align=left;verticalAlign=top;spacingLeft=4;spacingRight=4;overflow=hidden;rotatable=0;points=[[0,0.5],[1,0.5]];portConstraint=eastwest;whiteSpace=wrap;html=1;" parent="PCOw8MUoLYuNnhCvzRF6-5" vertex="1">
          <mxGeometry y="26" width="310" height="26" as="geometry" />
        </mxCell>
        <mxCell id="n3uP3YLKR5iZk3-F4e7P-1" value="- print: bool" style="text;strokeColor=none;fillColor=none;align=left;verticalAlign=top;spacingLeft=4;spacingRight=4;overflow=hidden;rotatable=0;points=[[0,0.5],[1,0.5]];portConstraint=eastwest;whiteSpace=wrap;html=1;" parent="PCOw8MUoLYuNnhCvzRF6-5" vertex="1">
          <mxGeometry y="52" width="310" height="26" as="geometry" />
        </mxCell>
        <mxCell id="AQKwB4mIMrvWCgOZAOx5-1" value="- world: World*" style="text;strokeColor=none;fillColor=none;align=left;verticalAlign=top;spacingLeft=4;spacingRight=4;overflow=hidden;rotatable=0;points=[[0,0.5],[1,0.5]];portConstraint=eastwest;whiteSpace=wrap;html=1;" vertex="1" parent="PCOw8MUoLYuNnhCvzRF6-5">
          <mxGeometry y="78" width="310" height="26" as="geometry" />
        </mxCell>
        <mxCell id="PCOw8MUoLYuNnhCvzRF6-7" value="" style="line;strokeWidth=1;fillColor=none;align=left;verticalAlign=middle;spacingTop=-1;spacingLeft=3;spacingRight=3;rotatable=0;labelPosition=right;points=[];portConstraint=eastwest;strokeColor=inherit;" parent="PCOw8MUoLYuNnhCvzRF6-5" vertex="1">
          <mxGeometry y="104" width="310" height="8" as="geometry" />
        </mxCell>
        <mxCell id="AQKwB4mIMrvWCgOZAOx5-4" value="+ CommandLineInterface(int argc, char** argv)" style="text;strokeColor=none;fillColor=none;align=left;verticalAlign=top;spacingLeft=4;spacingRight=4;overflow=hidden;rotatable=0;points=[[0,0.5],[1,0.5]];portConstraint=eastwest;whiteSpace=wrap;html=1;" vertex="1" parent="PCOw8MUoLYuNnhCvzRF6-5">
          <mxGeometry y="112" width="310" height="26" as="geometry" />
        </mxCell>
        <mxCell id="AQKwB4mIMrvWCgOZAOx5-7" value="+ mainMenu(): void" style="text;strokeColor=none;fillColor=none;align=left;verticalAlign=top;spacingLeft=4;spacingRight=4;overflow=hidden;rotatable=0;points=[[0,0.5],[1,0.5]];portConstraint=eastwest;whiteSpace=wrap;html=1;" vertex="1" parent="PCOw8MUoLYuNnhCvzRF6-5">
          <mxGeometry y="138" width="310" height="26" as="geometry" />
        </mxCell>
        <mxCell id="AQKwB4mIMrvWCgOZAOx5-5" value="+ displayMenu(): void" style="text;strokeColor=none;fillColor=none;align=left;verticalAlign=top;spacingLeft=4;spacingRight=4;overflow=hidden;rotatable=0;points=[[0,0.5],[1,0.5]];portConstraint=eastwest;whiteSpace=wrap;html=1;" vertex="1" parent="PCOw8MUoLYuNnhCvzRF6-5">
          <mxGeometry y="164" width="310" height="26" as="geometry" />
        </mxCell>
        <mxCell id="PCOw8MUoLYuNnhCvzRF6-49" value="+ addMenu(): void" style="text;strokeColor=none;fillColor=none;align=left;verticalAlign=top;spacingLeft=4;spacingRight=4;overflow=hidden;rotatable=0;points=[[0,0.5],[1,0.5]];portConstraint=eastwest;whiteSpace=wrap;html=1;" parent="PCOw8MUoLYuNnhCvzRF6-5" vertex="1">
          <mxGeometry y="190" width="310" height="26" as="geometry" />
        </mxCell>
        <mxCell id="AQKwB4mIMrvWCgOZAOx5-8" value="+ saveMenu(): void" style="text;strokeColor=none;fillColor=none;align=left;verticalAlign=top;spacingLeft=4;spacingRight=4;overflow=hidden;rotatable=0;points=[[0,0.5],[1,0.5]];portConstraint=eastwest;whiteSpace=wrap;html=1;" vertex="1" parent="PCOw8MUoLYuNnhCvzRF6-5">
          <mxGeometry y="216" width="310" height="26" as="geometry" />
        </mxCell>
        <mxCell id="AQKwB4mIMrvWCgOZAOx5-2" value="+ autoPlay(atomic&amp;lt;bool&amp;gt;&amp;amp; run): void" style="text;strokeColor=none;fillColor=none;align=left;verticalAlign=top;spacingLeft=4;spacingRight=4;overflow=hidden;rotatable=0;points=[[0,0.5],[1,0.5]];portConstraint=eastwest;whiteSpace=wrap;html=1;" vertex="1" parent="PCOw8MUoLYuNnhCvzRF6-5">
          <mxGeometry y="242" width="310" height="26" as="geometry" />
        </mxCell>
        <mxCell id="AQKwB4mIMrvWCgOZAOx5-6" value="+ evolveLoop(): void" style="text;strokeColor=none;fillColor=none;align=left;verticalAlign=top;spacingLeft=4;spacingRight=4;overflow=hidden;rotatable=0;points=[[0,0.5],[1,0.5]];portConstraint=eastwest;whiteSpace=wrap;html=1;" vertex="1" parent="PCOw8MUoLYuNnhCvzRF6-5">
          <mxGeometry y="268" width="310" height="26" as="geometry" />
        </mxCell>
        <mxCell id="AQKwB4mIMrvWCgOZAOx5-3" value="+ calculate_processing_time(long generations): long" style="text;strokeColor=none;fillColor=none;align=left;verticalAlign=top;spacingLeft=4;spacingRight=4;overflow=hidden;rotatable=0;points=[[0,0.5],[1,0.5]];portConstraint=eastwest;whiteSpace=wrap;html=1;" vertex="1" parent="PCOw8MUoLYuNnhCvzRF6-5">
          <mxGeometry y="294" width="310" height="26" as="geometry" />
        </mxCell>
        <mxCell id="AQKwB4mIMrvWCgOZAOx5-10" value="Use" style="endArrow=open;endSize=12;dashed=1;html=1;rounded=0;" edge="1" parent="1" source="PCOw8MUoLYuNnhCvzRF6-5" target="PCOw8MUoLYuNnhCvzRF6-1">
          <mxGeometry width="160" relative="1" as="geometry">
            <mxPoint x="320" y="570" as="sourcePoint" />
            <mxPoint x="480" y="570" as="targetPoint" />
            <Array as="points" />
          </mxGeometry>
        </mxCell>
      </root>
    </mxGraphModel>
  </diagram>
</mxfile>
